<svg width="94" height="91" viewBox="0 0 94 91" fill="none" xmlns="http://www.w3.org/2000/svg">
<path d="M15.3805 87.7899H78.6195C88.1584 87.7899 93.811 77.5338 89.5716 69.046L57.7754 9.63109C53.1826 0.789636 40.8174 0.789636 36.2246 9.63109L4.42845 69.046C0.188946 77.5338 5.84161 87.7899 15.3805 87.7899Z" stroke="#00CCDD" stroke-width="5" stroke-miterlimit="10" stroke-linecap="round"/>
<path d="M48.2377 59.8509H45.7647C43.2916 59.8509 43.6449 57.729 43.6449 55.2532L41.1719 29.0824C41.1719 26.6068 43.2916 24.4849 45.7647 24.4849H48.2377C50.7107 24.4849 52.8305 26.6068 52.8305 29.0824L50.3574 55.2532C50.3574 57.729 50.7107 59.8509 48.2377 59.8509Z" fill="#00CCDD"/>
<path d="M46.8224 73.6434C50.1394 73.6434 52.8283 71.5851 52.8283 69.046C52.8283 66.5069 50.1394 64.4483 46.8224 64.4483C43.5053 64.4483 40.8164 66.5069 40.8164 69.046C40.8164 71.5851 43.5053 73.6434 46.8224 73.6434Z" fill="#00CCDD"/>
</svg>
