<svg width="984" height="201" viewBox="0 0 984 201" fill="none" xmlns="http://www.w3.org/2000/svg">
<path d="M59 75C96.2992 48.676 140.323 10 278 10C224.176 11.2244 160.699 14.7609 77.4135 75H59Z" fill="#00CCDD" stroke="#00CCDD" stroke-width="0.5"/>
<path d="M39.8667 130.857L58.4711 74.3796H78.2716L51.0293 148H28.4382L1.32889 74.3796H21.2622L39.8667 130.857ZM148.558 149.196C142.534 149.196 137.13 148.133 132.346 146.007C127.562 143.792 123.752 140.824 120.917 137.103C118.171 133.382 116.665 129.263 116.399 124.744H135.137C135.491 127.579 136.864 129.927 139.256 131.788C141.737 133.648 144.793 134.578 148.425 134.578C151.969 134.578 154.716 133.869 156.665 132.452C158.702 131.035 159.721 129.218 159.721 127.004C159.721 124.612 158.481 122.84 156 121.688C153.608 120.448 149.754 119.119 144.439 117.701C138.946 116.372 134.428 114.999 130.884 113.582C127.429 112.164 124.417 109.994 121.848 107.07C119.367 104.147 118.127 100.204 118.127 95.2431C118.127 91.1679 119.279 87.447 121.582 84.0804C123.974 80.7139 127.34 78.0561 131.681 76.1071C136.111 74.1581 141.294 73.1836 147.229 73.1836C156 73.1836 162.999 75.3984 168.226 79.828C173.453 84.169 176.332 90.0604 176.864 97.5022H159.057C158.791 94.5787 157.551 92.2753 155.336 90.592C153.209 88.8201 150.33 87.9342 146.698 87.9342C143.331 87.9342 140.718 88.5544 138.857 89.7947C137.086 91.035 136.2 92.7625 136.2 94.9773C136.2 97.4579 137.44 99.3627 139.921 100.692C142.401 101.932 146.255 103.216 151.482 104.545C156.797 105.874 161.183 107.247 164.638 108.665C168.093 110.082 171.061 112.297 173.541 115.309C176.111 118.233 177.44 122.131 177.528 127.004C177.528 131.256 176.332 135.065 173.94 138.432C171.637 141.799 168.27 144.456 163.841 146.405C159.5 148.266 154.405 149.196 148.558 149.196ZM202.235 65.6089C198.957 65.6089 196.211 64.5901 193.996 62.5524C191.87 60.4262 190.807 57.8127 190.807 54.712C190.807 51.6113 191.87 49.0421 193.996 47.0044C196.211 44.8782 198.957 43.8151 202.235 43.8151C205.513 43.8151 208.215 44.8782 210.341 47.0044C212.556 49.0421 213.664 51.6113 213.664 54.712C213.664 57.8127 212.556 60.4262 210.341 62.5524C208.215 64.5901 205.513 65.6089 202.235 65.6089ZM211.404 74.3796V148H192.8V74.3796H211.404ZM251.447 89.6618V125.276C251.447 127.757 252.022 129.573 253.174 130.724C254.414 131.788 256.452 132.319 259.287 132.319H267.925V148H256.231C240.55 148 232.709 140.381 232.709 125.143V89.6618H223.939V74.3796H232.709V56.1738H251.447V74.3796H267.925V89.6618H251.447Z" fill="#00CCDD"/>
<path d="M322.103 73.3164C330.874 73.3164 337.961 76.1071 343.365 81.6884C348.769 87.1812 351.471 94.8887 351.471 104.811V148H332.867V107.336C332.867 101.489 331.405 97.015 328.482 93.9142C325.558 90.7249 321.571 89.1302 316.522 89.1302C311.383 89.1302 307.308 90.7249 304.296 93.9142C301.372 97.015 299.91 101.489 299.91 107.336V148H281.306V74.3796H299.91V83.5489C302.391 80.3596 305.536 77.879 309.346 76.1071C313.244 74.2467 317.496 73.3164 322.103 73.3164ZM438.664 74.3796V148H419.927V138.698C417.535 141.887 414.39 144.412 410.492 146.272C406.682 148.044 402.518 148.93 398 148.93C392.242 148.93 387.148 147.734 382.718 145.342C378.288 142.862 374.789 139.274 372.22 134.578C369.739 129.794 368.499 124.124 368.499 117.568V74.3796H387.103V114.911C387.103 120.758 388.565 125.276 391.489 128.465C394.412 131.566 398.399 133.116 403.449 133.116C408.587 133.116 412.618 131.566 415.541 128.465C418.465 125.276 419.927 120.758 419.927 114.911V74.3796H438.664ZM485.193 149.196C479.169 149.196 473.764 148.133 468.98 146.007C464.196 143.792 460.387 140.824 457.552 137.103C454.806 133.382 453.3 129.263 453.034 124.744H471.771C472.125 127.579 473.499 129.927 475.891 131.788C478.371 133.648 481.428 134.578 485.06 134.578C488.604 134.578 491.35 133.869 493.299 132.452C495.337 131.035 496.356 129.218 496.356 127.004C496.356 124.612 495.115 122.84 492.635 121.688C490.243 120.448 486.389 119.119 481.073 117.701C475.581 116.372 471.062 114.999 467.519 113.582C464.064 112.164 461.051 109.994 458.482 107.07C456.002 104.147 454.761 100.204 454.761 95.2431C454.761 91.1679 455.913 87.447 458.216 84.0804C460.608 80.7139 463.975 78.0561 468.316 76.1071C472.746 74.1581 477.928 73.1836 483.864 73.1836C492.635 73.1836 499.633 75.3984 504.86 79.828C510.087 84.169 512.967 90.0604 513.498 97.5022H495.691C495.425 94.5787 494.185 92.2753 491.97 90.592C489.844 88.8201 486.965 87.9342 483.332 87.9342C479.966 87.9342 477.352 88.5544 475.492 89.7947C473.72 91.035 472.834 92.7625 472.834 94.9773C472.834 97.4579 474.075 99.3627 476.555 100.692C479.036 101.932 482.889 103.216 488.116 104.545C493.432 105.874 497.817 107.247 501.272 108.665C504.728 110.082 507.695 112.297 510.176 115.309C512.745 118.233 514.074 122.131 514.163 127.004C514.163 131.256 512.967 135.065 510.575 138.432C508.271 141.799 504.905 144.456 500.475 146.405C496.134 148.266 491.04 149.196 485.193 149.196ZM524.651 110.924C524.651 103.482 526.112 96.8821 529.036 91.1236C532.048 85.365 536.079 80.9354 541.129 77.8347C546.267 74.7339 551.981 73.1836 558.271 73.1836C563.764 73.1836 568.548 74.291 572.623 76.5058C576.787 78.7206 580.109 81.5113 582.59 84.8778V74.3796H601.327V148H582.59V137.236C580.198 140.691 576.876 143.57 572.623 145.874C568.46 148.089 563.631 149.196 558.139 149.196C551.937 149.196 546.267 147.601 541.129 144.412C536.079 141.223 532.048 136.749 529.036 130.99C526.112 125.143 524.651 118.454 524.651 110.924ZM582.59 111.19C582.59 106.672 581.704 102.818 579.932 99.6284C578.16 96.3505 575.768 93.8699 572.756 92.1867C569.744 90.4148 566.511 89.5289 563.055 89.5289C559.6 89.5289 556.411 90.3705 553.487 92.0538C550.564 93.737 548.172 96.2176 546.311 99.4956C544.54 102.685 543.654 106.494 543.654 110.924C543.654 115.354 544.54 119.252 546.311 122.618C548.172 125.896 550.564 128.421 553.487 130.193C556.5 131.965 559.689 132.851 563.055 132.851C566.511 132.851 569.744 132.009 572.756 130.326C575.768 128.554 578.16 126.073 579.932 122.884C581.704 119.606 582.59 115.708 582.59 111.19ZM660.295 73.3164C669.065 73.3164 676.153 76.1071 681.557 81.6884C686.961 87.1812 689.663 94.8887 689.663 104.811V148H671.059V107.336C671.059 101.489 669.597 97.015 666.673 93.9142C663.75 90.7249 659.763 89.1302 654.713 89.1302C649.575 89.1302 645.5 90.7249 642.488 93.9142C639.564 97.015 638.102 101.489 638.102 107.336V148H619.498V74.3796H638.102V83.5489C640.583 80.3596 643.728 77.879 647.537 76.1071C651.436 74.2467 655.688 73.3164 660.295 73.3164ZM729.016 89.6618V125.276C729.016 127.757 729.592 129.573 730.744 130.724C731.984 131.788 734.021 132.319 736.856 132.319H745.494V148H733.8C718.119 148 710.279 140.381 710.279 125.143V89.6618H701.508V74.3796H710.279V56.1738H729.016V74.3796H745.494V89.6618H729.016ZM754.091 110.924C754.091 103.482 755.553 96.8821 758.477 91.1236C761.489 85.365 765.52 80.9354 770.57 77.8347C775.708 74.7339 781.422 73.1836 787.712 73.1836C793.205 73.1836 797.989 74.291 802.064 76.5058C806.228 78.7206 809.55 81.5113 812.031 84.8778V74.3796H830.768V148H812.031V137.236C809.639 140.691 806.317 143.57 802.064 145.874C797.9 148.089 793.072 149.196 787.579 149.196C781.378 149.196 775.708 147.601 770.57 144.412C765.52 141.223 761.489 136.749 758.477 130.99C755.553 125.143 754.091 118.454 754.091 110.924ZM812.031 111.19C812.031 106.672 811.145 102.818 809.373 99.6284C807.601 96.3505 805.209 93.8699 802.197 92.1867C799.185 90.4148 795.951 89.5289 792.496 89.5289C789.041 89.5289 785.852 90.3705 782.928 92.0538C780.005 93.737 777.613 96.2176 775.752 99.4956C773.98 102.685 773.095 106.494 773.095 110.924C773.095 115.354 773.98 119.252 775.752 122.618C777.613 125.896 780.005 128.421 782.928 130.193C785.94 131.965 789.13 132.851 792.496 132.851C795.951 132.851 799.185 132.009 802.197 130.326C805.209 128.554 807.601 126.073 809.373 122.884C811.145 119.606 812.031 115.708 812.031 111.19ZM867.543 85.808C869.935 81.9099 873.036 78.8535 876.846 76.6387C880.744 74.4239 885.173 73.3164 890.134 73.3164V92.8511H885.218C879.37 92.8511 874.941 94.2243 871.929 96.9707C869.005 99.717 867.543 104.501 867.543 111.323V148H848.939V74.3796H867.543V85.808ZM897.881 110.924C897.881 103.482 899.343 96.8821 902.267 91.1236C905.279 85.365 909.31 80.9354 914.36 77.8347C919.498 74.7339 925.212 73.1836 931.502 73.1836C936.995 73.1836 941.779 74.291 945.854 76.5058C950.018 78.7206 953.34 81.5113 955.821 84.8778V74.3796H974.558V148H955.821V137.236C953.429 140.691 950.107 143.57 945.854 145.874C941.69 148.089 936.862 149.196 931.369 149.196C925.168 149.196 919.498 147.601 914.36 144.412C909.31 141.223 905.279 136.749 902.267 130.99C899.343 125.143 897.881 118.454 897.881 110.924ZM955.821 111.19C955.821 106.672 954.935 102.818 953.163 99.6284C951.391 96.3505 948.999 93.8699 945.987 92.1867C942.975 90.4148 939.741 89.5289 936.286 89.5289C932.831 89.5289 929.642 90.3705 926.718 92.0538C923.795 93.737 921.403 96.2176 919.542 99.4956C917.77 102.685 916.885 106.494 916.885 110.924C916.885 115.354 917.77 119.252 919.542 122.618C921.403 125.896 923.795 128.421 926.718 130.193C929.73 131.965 932.92 132.851 936.286 132.851C939.741 132.851 942.975 132.009 945.987 130.326C948.999 128.554 951.391 126.073 953.163 122.884C954.935 119.606 955.821 115.708 955.821 111.19Z" fill="white"/>
<rect x="89" y="75" width="18" height="73" fill="#00CCDD"/>
<path d="M274 1L276 7L290 9L276 12.5L274 19.5L303.5 9L274 1Z" fill="#00CCDD" stroke="#00CCDD" stroke-width="0.5"/>
</svg>
