<svg width="259" height="54" viewBox="0 0 259 54" fill="none" xmlns="http://www.w3.org/2000/svg">
<path d="M15.5295 20.4776C25.3471 13.5489 36.9347 3.3689 73.1728 3.3689C59.0056 3.69117 42.2979 4.62202 20.3761 20.4776H15.5295Z" fill="#00CCDD" stroke="#00CCDD" stroke-width="0.131606"/>
<path d="M10.4934 34.7511L15.3903 19.8855H20.602L13.4315 39.2632H7.48526L0.349779 19.8855H5.59646L10.4934 34.7511ZM39.1022 39.578C37.5166 39.578 36.0942 39.2982 34.8349 38.7385C33.5757 38.1556 32.573 37.3744 31.8269 36.395C31.104 35.4156 30.7076 34.3313 30.6376 33.1421H35.5695C35.6628 33.8883 36.0242 34.5062 36.6538 34.9959C37.3067 35.4856 38.1112 35.7304 39.0673 35.7304C40 35.7304 40.7229 35.5439 41.2359 35.1708C41.7722 34.7977 42.0404 34.3197 42.0404 33.7367C42.0404 33.1071 41.7139 32.6407 41.061 32.3376C40.4314 32.0111 39.417 31.6613 38.0179 31.2883C36.5722 30.9385 35.3829 30.577 34.4502 30.2039C33.5408 29.8308 32.7479 29.2595 32.0717 28.49C31.4188 27.7205 31.0923 26.6828 31.0923 25.377C31.0923 24.3043 31.3955 23.325 32.0017 22.4389C32.6313 21.5527 33.5174 20.8532 34.6601 20.3402C35.826 19.8272 37.1901 19.5707 38.7525 19.5707C41.061 19.5707 42.9032 20.1536 44.279 21.3196C45.6548 22.4622 46.4126 24.0129 46.5525 25.9716H41.8655C41.7955 25.2021 41.4691 24.5958 40.8861 24.1528C40.3265 23.6864 39.5686 23.4532 38.6126 23.4532C37.7265 23.4532 37.0386 23.6164 36.5489 23.9429C36.0825 24.2694 35.8493 24.7241 35.8493 25.307C35.8493 25.96 36.1758 26.4613 36.8287 26.8111C37.4816 27.1375 38.496 27.4757 39.8718 27.8254C41.2709 28.1752 42.4251 28.5367 43.3346 28.9098C44.244 29.2829 45.0252 29.8658 45.6781 30.6587C46.3543 31.4282 46.7041 32.4542 46.7274 33.7367C46.7274 34.856 46.4126 35.8587 45.783 36.7448C45.1767 37.6309 44.2906 38.3305 43.1247 38.8435C41.9821 39.3332 40.6413 39.578 39.1022 39.578ZM53.2306 17.5769C52.3678 17.5769 51.6449 17.3088 51.0619 16.7724C50.5023 16.2128 50.2225 15.5249 50.2225 14.7087C50.2225 13.8926 50.5023 13.2164 51.0619 12.68C51.6449 12.1204 52.3678 11.8406 53.2306 11.8406C54.0934 11.8406 54.8046 12.1204 55.3642 12.68C55.9472 13.2164 56.2387 13.8926 56.2387 14.7087C56.2387 15.5249 55.9472 16.2128 55.3642 16.7724C54.8046 17.3088 54.0934 17.5769 53.2306 17.5769ZM55.644 19.8855V39.2632H50.7471V19.8855H55.644ZM66.1836 23.9079V33.282C66.1836 33.9349 66.3352 34.4129 66.6383 34.7161C66.9648 34.9959 67.5011 35.1358 68.2473 35.1358H70.5208V39.2632H67.4428C63.3154 39.2632 61.2517 37.2578 61.2517 33.247V23.9079H58.9432V19.8855H61.2517V15.0935H66.1836V19.8855H70.5208V23.9079H66.1836ZM84.7812 19.6056C87.0897 19.6056 88.9552 20.3402 90.3776 21.8093C91.8 23.255 92.5113 25.2837 92.5113 27.8954V39.2632H87.6144V28.56C87.6144 27.021 87.2296 25.8434 86.4601 25.0272C85.6906 24.1877 84.6412 23.768 83.3121 23.768C81.9596 23.768 80.887 24.1877 80.0941 25.0272C79.3246 25.8434 78.9399 27.021 78.9399 28.56V39.2632H74.043V19.8855H78.9399V22.2989C79.5928 21.4595 80.4206 20.8066 81.4233 20.3402C82.4493 19.8505 83.5686 19.6056 84.7812 19.6056ZM115.461 19.8855V39.2632H110.53V36.8148C109.9 37.6542 109.072 38.3188 108.046 38.8085C107.043 39.2749 105.947 39.5081 104.758 39.5081C103.242 39.5081 101.902 39.1933 100.736 38.5636C99.5698 37.9107 98.6487 36.9663 97.9725 35.7304C97.3195 34.4712 96.9931 32.9788 96.9931 31.2533V19.8855H101.89V30.5537C101.89 32.0927 102.275 33.282 103.044 34.1215C103.814 34.9376 104.863 35.3457 106.192 35.3457C107.545 35.3457 108.606 34.9376 109.375 34.1215C110.145 33.282 110.53 32.0927 110.53 30.5537V19.8855H115.461ZM127.708 39.578C126.123 39.578 124.7 39.2982 123.441 38.7385C122.182 38.1556 121.179 37.3744 120.433 36.395C119.71 35.4156 119.314 34.3313 119.244 33.1421H124.176C124.269 33.8883 124.63 34.5062 125.26 34.9959C125.913 35.4856 126.717 35.7304 127.673 35.7304C128.606 35.7304 129.329 35.5439 129.842 35.1708C130.378 34.7977 130.646 34.3197 130.646 33.7367C130.646 33.1071 130.32 32.6407 129.667 32.3376C129.037 32.0111 128.023 31.6613 126.624 31.2883C125.178 30.9385 123.989 30.577 123.056 30.2039C122.147 29.8308 121.354 29.2595 120.678 28.49C120.025 27.7205 119.698 26.6828 119.698 25.377C119.698 24.3043 120.001 23.325 120.608 22.4389C121.237 21.5527 122.123 20.8532 123.266 20.3402C124.432 19.8272 125.796 19.5707 127.359 19.5707C129.667 19.5707 131.509 20.1536 132.885 21.3196C134.261 22.4622 135.019 24.0129 135.159 25.9716H130.472C130.402 25.2021 130.075 24.5958 129.492 24.1528C128.933 23.6864 128.175 23.4532 127.219 23.4532C126.332 23.4532 125.645 23.6164 125.155 23.9429C124.689 24.2694 124.455 24.7241 124.455 25.307C124.455 25.96 124.782 26.4613 125.435 26.8111C126.088 27.1375 127.102 27.4757 128.478 27.8254C129.877 28.1752 131.031 28.5367 131.941 28.9098C132.85 29.2829 133.631 29.8658 134.284 30.6587C134.96 31.4282 135.31 32.4542 135.333 33.7367C135.333 34.856 135.019 35.8587 134.389 36.7448C133.783 37.6309 132.897 38.3305 131.731 38.8435C130.588 39.3332 129.247 39.578 127.708 39.578ZM138.094 29.5044C138.094 27.5456 138.479 25.8084 139.248 24.2927C140.041 22.777 141.102 21.611 142.431 20.7949C143.784 19.9787 145.288 19.5707 146.943 19.5707C148.389 19.5707 149.648 19.8621 150.721 20.4451C151.817 21.0281 152.691 21.7626 153.344 22.6487V19.8855H158.276V39.2632H153.344V36.43C152.715 37.3394 151.84 38.0973 150.721 38.7036C149.625 39.2865 148.354 39.578 146.908 39.578C145.276 39.578 143.784 39.1583 142.431 38.3188C141.102 37.4793 140.041 36.3017 139.248 34.786C138.479 33.247 138.094 31.4865 138.094 29.5044ZM153.344 29.5743C153.344 28.3851 153.111 27.3707 152.645 26.5313C152.178 25.6685 151.549 25.0156 150.756 24.5725C149.963 24.1061 149.112 23.8729 148.203 23.8729C147.293 23.8729 146.454 24.0945 145.684 24.5375C144.915 24.9806 144.285 25.6335 143.795 26.4963C143.329 27.3358 143.096 28.3385 143.096 29.5044C143.096 30.6703 143.329 31.6963 143.795 32.5824C144.285 33.4452 144.915 34.1098 145.684 34.5762C146.477 35.0425 147.316 35.2757 148.203 35.2757C149.112 35.2757 149.963 35.0542 150.756 34.6112C151.549 34.1448 152.178 33.4919 152.645 32.6524C153.111 31.7896 153.344 30.7636 153.344 29.5743ZM173.797 19.6056C176.106 19.6056 177.971 20.3402 179.394 21.8093C180.816 23.255 181.527 25.2837 181.527 27.8954V39.2632H176.63V28.56C176.63 27.021 176.246 25.8434 175.476 25.0272C174.707 24.1877 173.657 23.768 172.328 23.768C170.976 23.768 169.903 24.1877 169.11 25.0272C168.341 25.8434 167.956 27.021 167.956 28.56V39.2632H163.059V19.8855H167.956V22.2989C168.609 21.4595 169.437 20.8066 170.439 20.3402C171.465 19.8505 172.585 19.6056 173.797 19.6056ZM191.885 23.9079V33.282C191.885 33.9349 192.037 34.4129 192.34 34.7161C192.666 34.9959 193.203 35.1358 193.949 35.1358H196.223V39.2632H193.145C189.017 39.2632 186.953 37.2578 186.953 33.247V23.9079H184.645V19.8855H186.953V15.0935H191.885V19.8855H196.223V23.9079H191.885ZM198.485 29.5044C198.485 27.5456 198.87 25.8084 199.64 24.2927C200.433 22.777 201.494 21.611 202.823 20.7949C204.175 19.9787 205.679 19.5707 207.335 19.5707C208.781 19.5707 210.04 19.8621 211.112 20.4451C212.208 21.0281 213.083 21.7626 213.736 22.6487V19.8855H218.668V39.2632H213.736V36.43C213.106 37.3394 212.232 38.0973 211.112 38.7036C210.016 39.2865 208.746 39.578 207.3 39.578C205.668 39.578 204.175 39.1583 202.823 38.3188C201.494 37.4793 200.433 36.3017 199.64 34.786C198.87 33.247 198.485 31.4865 198.485 29.5044ZM213.736 29.5743C213.736 28.3851 213.503 27.3707 213.036 26.5313C212.57 25.6685 211.94 25.0156 211.147 24.5725C210.355 24.1061 209.503 23.8729 208.594 23.8729C207.685 23.8729 206.845 24.0945 206.076 24.5375C205.306 24.9806 204.677 25.6335 204.187 26.4963C203.72 27.3358 203.487 28.3385 203.487 29.5044C203.487 30.6703 203.72 31.6963 204.187 32.5824C204.677 33.4452 205.306 34.1098 206.076 34.5762C206.868 35.0425 207.708 35.2757 208.594 35.2757C209.503 35.2757 210.355 35.0542 211.147 34.6112C211.94 34.1448 212.57 33.4919 213.036 32.6524C213.503 31.7896 213.736 30.7636 213.736 29.5743ZM228.347 22.8936C228.977 21.8675 229.793 21.0631 230.796 20.4801C231.822 19.8971 232.988 19.6056 234.294 19.6056V24.7474H232.999C231.46 24.7474 230.294 25.1088 229.502 25.8317C228.732 26.5546 228.347 27.8138 228.347 29.6093V39.2632H223.45V19.8855H228.347V22.8936ZM236.333 29.5044C236.333 27.5456 236.717 25.8084 237.487 24.2927C238.28 22.777 239.341 21.611 240.67 20.7949C242.022 19.9787 243.526 19.5707 245.182 19.5707C246.628 19.5707 247.887 19.8621 248.96 20.4451C250.056 21.0281 250.93 21.7626 251.583 22.6487V19.8855H256.515V39.2632H251.583V36.43C250.953 37.3394 250.079 38.0973 248.96 38.7036C247.864 39.2865 246.593 39.578 245.147 39.578C243.515 39.578 242.022 39.1583 240.67 38.3188C239.341 37.4793 238.28 36.3017 237.487 34.786C236.717 33.247 236.333 31.4865 236.333 29.5044ZM251.583 29.5743C251.583 28.3851 251.35 27.3707 250.883 26.5313C250.417 25.6685 249.787 25.0156 248.995 24.5725C248.202 24.1061 247.351 23.8729 246.441 23.8729C245.532 23.8729 244.692 24.0945 243.923 24.5375C243.153 24.9806 242.524 25.6335 242.034 26.4963C241.568 27.3358 241.334 28.3385 241.334 29.5044C241.334 30.6703 241.568 31.6963 242.034 32.5824C242.524 33.4452 243.153 34.1098 243.923 34.5762C244.716 35.0425 245.555 35.2757 246.441 35.2757C247.351 35.2757 248.202 35.0542 248.995 34.6112C249.787 34.1448 250.417 33.4919 250.883 32.6524C251.35 31.7896 251.583 30.7636 251.583 29.5743Z" fill="#00CCDD"/>
<rect x="23.4258" y="20.4776" width="4.7378" height="19.2144" fill="#00CCDD"/>
<path d="M72.1199 0.999992L72.6464 2.57926L76.3313 3.10568L72.6464 4.02692L72.1199 5.8694L79.8847 3.10568L72.1199 0.999992Z" fill="#00CCDD" stroke="#00CCDD" stroke-width="0.131606"/>
</svg>
